<mxfile host="app.diagrams.net" modified="2023-03-16T15:10:05.360Z" agent="5.0 (Windows NT 10.0; Win64; x64) AppleWebKit/537.36 (KHTML, like Gecko) Chrome/111.0.0.0 Safari/537.36 Edg/111.0.1661.41" etag="VdapuAWldbvNRg3CS7gD" version="20.8.23" type="github">
  <diagram name="第 1 页" id="GbeAPPTH8N0psqSGH3Lb">
    <mxGraphModel dx="945" dy="573" grid="1" gridSize="10" guides="1" tooltips="1" connect="1" arrows="1" fold="1" page="1" pageScale="1" pageWidth="827" pageHeight="1169" math="0" shadow="0">
      <root>
        <mxCell id="0" />
        <mxCell id="1" parent="0" />
        <mxCell id="DcM5iLWy5LF_-Y-xgWSp-1" value="用户" style="shape=umlLifeline;perimeter=lifelinePerimeter;whiteSpace=wrap;html=1;container=1;dropTarget=0;collapsible=0;recursiveResize=0;outlineConnect=0;portConstraint=eastwest;newEdgeStyle={&quot;edgeStyle&quot;:&quot;elbowEdgeStyle&quot;,&quot;elbow&quot;:&quot;vertical&quot;,&quot;curved&quot;:0,&quot;rounded&quot;:0};" vertex="1" parent="1">
          <mxGeometry x="170" y="110" width="100" height="650" as="geometry" />
        </mxCell>
        <mxCell id="DcM5iLWy5LF_-Y-xgWSp-2" value="系统" style="shape=umlLifeline;perimeter=lifelinePerimeter;whiteSpace=wrap;html=1;container=1;dropTarget=0;collapsible=0;recursiveResize=0;outlineConnect=0;portConstraint=eastwest;newEdgeStyle={&quot;edgeStyle&quot;:&quot;elbowEdgeStyle&quot;,&quot;elbow&quot;:&quot;vertical&quot;,&quot;curved&quot;:0,&quot;rounded&quot;:0};" vertex="1" parent="1">
          <mxGeometry x="320" y="110" width="100" height="650" as="geometry" />
        </mxCell>
        <mxCell id="DcM5iLWy5LF_-Y-xgWSp-5" value="" style="html=1;points=[];perimeter=orthogonalPerimeter;outlineConnect=0;targetShapes=umlLifeline;portConstraint=eastwest;newEdgeStyle={&quot;edgeStyle&quot;:&quot;elbowEdgeStyle&quot;,&quot;elbow&quot;:&quot;vertical&quot;,&quot;curved&quot;:0,&quot;rounded&quot;:0};" vertex="1" parent="DcM5iLWy5LF_-Y-xgWSp-2">
          <mxGeometry x="45" y="60" width="10" height="130" as="geometry" />
        </mxCell>
        <mxCell id="DcM5iLWy5LF_-Y-xgWSp-11" value="" style="html=1;points=[];perimeter=orthogonalPerimeter;outlineConnect=0;targetShapes=umlLifeline;portConstraint=eastwest;newEdgeStyle={&quot;edgeStyle&quot;:&quot;elbowEdgeStyle&quot;,&quot;elbow&quot;:&quot;vertical&quot;,&quot;curved&quot;:0,&quot;rounded&quot;:0};" vertex="1" parent="DcM5iLWy5LF_-Y-xgWSp-2">
          <mxGeometry x="45" y="230" width="10" height="150" as="geometry" />
        </mxCell>
        <mxCell id="DcM5iLWy5LF_-Y-xgWSp-17" value="" style="html=1;points=[];perimeter=orthogonalPerimeter;outlineConnect=0;targetShapes=umlLifeline;portConstraint=eastwest;newEdgeStyle={&quot;edgeStyle&quot;:&quot;elbowEdgeStyle&quot;,&quot;elbow&quot;:&quot;vertical&quot;,&quot;curved&quot;:0,&quot;rounded&quot;:0};" vertex="1" parent="DcM5iLWy5LF_-Y-xgWSp-2">
          <mxGeometry x="54" y="310" width="10" height="50" as="geometry" />
        </mxCell>
        <mxCell id="DcM5iLWy5LF_-Y-xgWSp-20" value="" style="html=1;points=[];perimeter=orthogonalPerimeter;outlineConnect=0;targetShapes=umlLifeline;portConstraint=eastwest;newEdgeStyle={&quot;edgeStyle&quot;:&quot;elbowEdgeStyle&quot;,&quot;elbow&quot;:&quot;vertical&quot;,&quot;curved&quot;:0,&quot;rounded&quot;:0};" vertex="1" parent="DcM5iLWy5LF_-Y-xgWSp-2">
          <mxGeometry x="44" y="410" width="10" height="180" as="geometry" />
        </mxCell>
        <mxCell id="DcM5iLWy5LF_-Y-xgWSp-4" value="数据存储模块" style="shape=umlLifeline;perimeter=lifelinePerimeter;whiteSpace=wrap;html=1;container=1;dropTarget=0;collapsible=0;recursiveResize=0;outlineConnect=0;portConstraint=eastwest;newEdgeStyle={&quot;edgeStyle&quot;:&quot;elbowEdgeStyle&quot;,&quot;elbow&quot;:&quot;vertical&quot;,&quot;curved&quot;:0,&quot;rounded&quot;:0};" vertex="1" parent="1">
          <mxGeometry x="460" y="110" width="100" height="640" as="geometry" />
        </mxCell>
        <mxCell id="DcM5iLWy5LF_-Y-xgWSp-8" value="" style="html=1;points=[];perimeter=orthogonalPerimeter;outlineConnect=0;targetShapes=umlLifeline;portConstraint=eastwest;newEdgeStyle={&quot;edgeStyle&quot;:&quot;elbowEdgeStyle&quot;,&quot;elbow&quot;:&quot;vertical&quot;,&quot;curved&quot;:0,&quot;rounded&quot;:0};" vertex="1" parent="DcM5iLWy5LF_-Y-xgWSp-4">
          <mxGeometry x="45" y="85" width="10" height="80" as="geometry" />
        </mxCell>
        <mxCell id="DcM5iLWy5LF_-Y-xgWSp-14" value="" style="html=1;points=[];perimeter=orthogonalPerimeter;outlineConnect=0;targetShapes=umlLifeline;portConstraint=eastwest;newEdgeStyle={&quot;edgeStyle&quot;:&quot;elbowEdgeStyle&quot;,&quot;elbow&quot;:&quot;vertical&quot;,&quot;curved&quot;:0,&quot;rounded&quot;:0};" vertex="1" parent="DcM5iLWy5LF_-Y-xgWSp-4">
          <mxGeometry x="45" y="240" width="10" height="60" as="geometry" />
        </mxCell>
        <mxCell id="DcM5iLWy5LF_-Y-xgWSp-25" value="" style="html=1;points=[];perimeter=orthogonalPerimeter;outlineConnect=0;targetShapes=umlLifeline;portConstraint=eastwest;newEdgeStyle={&quot;edgeStyle&quot;:&quot;elbowEdgeStyle&quot;,&quot;elbow&quot;:&quot;vertical&quot;,&quot;curved&quot;:0,&quot;rounded&quot;:0};" vertex="1" parent="DcM5iLWy5LF_-Y-xgWSp-4">
          <mxGeometry x="45" y="475" width="10" height="80" as="geometry" />
        </mxCell>
        <mxCell id="DcM5iLWy5LF_-Y-xgWSp-6" value="登录" style="html=1;verticalAlign=bottom;endArrow=block;edgeStyle=elbowEdgeStyle;elbow=vertical;curved=0;rounded=0;" edge="1" target="DcM5iLWy5LF_-Y-xgWSp-5" parent="1" source="DcM5iLWy5LF_-Y-xgWSp-1">
          <mxGeometry relative="1" as="geometry">
            <mxPoint x="250" y="200" as="sourcePoint" />
            <Array as="points">
              <mxPoint x="320" y="180" />
            </Array>
          </mxGeometry>
        </mxCell>
        <mxCell id="DcM5iLWy5LF_-Y-xgWSp-7" value="返回登录" style="html=1;verticalAlign=bottom;endArrow=open;dashed=1;endSize=8;edgeStyle=elbowEdgeStyle;elbow=vertical;curved=0;rounded=0;" edge="1" source="DcM5iLWy5LF_-Y-xgWSp-5" parent="1" target="DcM5iLWy5LF_-Y-xgWSp-1">
          <mxGeometry relative="1" as="geometry">
            <mxPoint x="250" y="275" as="targetPoint" />
            <Array as="points">
              <mxPoint x="310" y="290" />
            </Array>
          </mxGeometry>
        </mxCell>
        <mxCell id="DcM5iLWy5LF_-Y-xgWSp-9" value="查询数据库、鉴权" style="html=1;verticalAlign=bottom;endArrow=block;edgeStyle=elbowEdgeStyle;elbow=vertical;curved=0;rounded=0;" edge="1" target="DcM5iLWy5LF_-Y-xgWSp-8" parent="1" source="DcM5iLWy5LF_-Y-xgWSp-5">
          <mxGeometry relative="1" as="geometry">
            <mxPoint x="390" y="210" as="sourcePoint" />
            <Array as="points">
              <mxPoint x="440" y="200" />
            </Array>
          </mxGeometry>
        </mxCell>
        <mxCell id="DcM5iLWy5LF_-Y-xgWSp-10" value="返回" style="html=1;verticalAlign=bottom;endArrow=open;dashed=1;endSize=8;edgeStyle=elbowEdgeStyle;elbow=vertical;curved=0;rounded=0;" edge="1" source="DcM5iLWy5LF_-Y-xgWSp-8" parent="1" target="DcM5iLWy5LF_-Y-xgWSp-5">
          <mxGeometry relative="1" as="geometry">
            <mxPoint x="390" y="285" as="targetPoint" />
            <Array as="points">
              <mxPoint x="440" y="260" />
            </Array>
          </mxGeometry>
        </mxCell>
        <mxCell id="DcM5iLWy5LF_-Y-xgWSp-12" value="下载配电所情况" style="html=1;verticalAlign=bottom;endArrow=block;edgeStyle=elbowEdgeStyle;elbow=vertical;curved=0;rounded=0;" edge="1" target="DcM5iLWy5LF_-Y-xgWSp-11" parent="1" source="DcM5iLWy5LF_-Y-xgWSp-1">
          <mxGeometry x="0.0034" relative="1" as="geometry">
            <mxPoint x="274.5" y="380" as="sourcePoint" />
            <Array as="points">
              <mxPoint x="310" y="350" />
            </Array>
            <mxPoint as="offset" />
          </mxGeometry>
        </mxCell>
        <mxCell id="DcM5iLWy5LF_-Y-xgWSp-13" value="返回下载连接" style="html=1;verticalAlign=bottom;endArrow=open;dashed=1;endSize=8;edgeStyle=elbowEdgeStyle;elbow=vertical;curved=0;rounded=0;" edge="1" source="DcM5iLWy5LF_-Y-xgWSp-11" parent="1" target="DcM5iLWy5LF_-Y-xgWSp-1">
          <mxGeometry x="0.0034" relative="1" as="geometry">
            <mxPoint x="295" y="415" as="targetPoint" />
            <Array as="points">
              <mxPoint x="300" y="480" />
            </Array>
            <mxPoint as="offset" />
          </mxGeometry>
        </mxCell>
        <mxCell id="DcM5iLWy5LF_-Y-xgWSp-15" value="查询图片url" style="html=1;verticalAlign=bottom;endArrow=block;edgeStyle=elbowEdgeStyle;elbow=vertical;curved=0;rounded=0;" edge="1" target="DcM5iLWy5LF_-Y-xgWSp-14" parent="1" source="DcM5iLWy5LF_-Y-xgWSp-11">
          <mxGeometry relative="1" as="geometry">
            <mxPoint x="410" y="340" as="sourcePoint" />
            <Array as="points">
              <mxPoint x="440" y="360" />
            </Array>
          </mxGeometry>
        </mxCell>
        <mxCell id="DcM5iLWy5LF_-Y-xgWSp-16" value="返回图片url" style="html=1;verticalAlign=bottom;endArrow=open;dashed=1;endSize=8;edgeStyle=elbowEdgeStyle;elbow=vertical;curved=0;rounded=0;" edge="1" source="DcM5iLWy5LF_-Y-xgWSp-14" parent="1" target="DcM5iLWy5LF_-Y-xgWSp-11">
          <mxGeometry relative="1" as="geometry">
            <mxPoint x="410" y="415" as="targetPoint" />
            <Array as="points">
              <mxPoint x="440" y="400" />
            </Array>
          </mxGeometry>
        </mxCell>
        <mxCell id="DcM5iLWy5LF_-Y-xgWSp-18" value="返回日志信息" style="html=1;verticalAlign=bottom;endArrow=block;edgeStyle=elbowEdgeStyle;elbow=vertical;curved=0;rounded=0;" edge="1" target="DcM5iLWy5LF_-Y-xgWSp-17" parent="1" source="DcM5iLWy5LF_-Y-xgWSp-4">
          <mxGeometry relative="1" as="geometry">
            <mxPoint x="454" y="420" as="sourcePoint" />
            <Array as="points">
              <mxPoint x="430" y="430" />
            </Array>
          </mxGeometry>
        </mxCell>
        <mxCell id="DcM5iLWy5LF_-Y-xgWSp-19" value="返回接收" style="html=1;verticalAlign=bottom;endArrow=open;dashed=1;endSize=8;edgeStyle=elbowEdgeStyle;elbow=vertical;curved=0;rounded=0;" edge="1" source="DcM5iLWy5LF_-Y-xgWSp-17" parent="1" target="DcM5iLWy5LF_-Y-xgWSp-4">
          <mxGeometry relative="1" as="geometry">
            <mxPoint x="454" y="495" as="targetPoint" />
            <Array as="points">
              <mxPoint x="430" y="460" />
            </Array>
          </mxGeometry>
        </mxCell>
        <mxCell id="DcM5iLWy5LF_-Y-xgWSp-21" value="修改告警人" style="html=1;verticalAlign=bottom;endArrow=block;edgeStyle=elbowEdgeStyle;elbow=vertical;curved=0;rounded=0;" edge="1" target="DcM5iLWy5LF_-Y-xgWSp-20" parent="1" source="DcM5iLWy5LF_-Y-xgWSp-1">
          <mxGeometry relative="1" as="geometry">
            <mxPoint x="263.5" y="530" as="sourcePoint" />
            <Array as="points">
              <mxPoint x="317" y="530" />
            </Array>
          </mxGeometry>
        </mxCell>
        <mxCell id="DcM5iLWy5LF_-Y-xgWSp-22" value="返回是否修改成功" style="html=1;verticalAlign=bottom;endArrow=open;dashed=1;endSize=8;edgeStyle=elbowEdgeStyle;elbow=vertical;curved=0;rounded=0;" edge="1" source="DcM5iLWy5LF_-Y-xgWSp-20" parent="1" target="DcM5iLWy5LF_-Y-xgWSp-1">
          <mxGeometry relative="1" as="geometry">
            <mxPoint x="294" y="595" as="targetPoint" />
            <Array as="points">
              <mxPoint x="320" y="680" />
            </Array>
          </mxGeometry>
        </mxCell>
        <mxCell id="DcM5iLWy5LF_-Y-xgWSp-24" value="填写表单" style="html=1;verticalAlign=bottom;endArrow=block;edgeStyle=elbowEdgeStyle;elbow=vertical;curved=0;rounded=0;" edge="1" parent="1" source="DcM5iLWy5LF_-Y-xgWSp-1" target="DcM5iLWy5LF_-Y-xgWSp-20">
          <mxGeometry x="-0.0035" relative="1" as="geometry">
            <mxPoint x="230" y="540" as="sourcePoint" />
            <mxPoint x="374" y="540" as="targetPoint" />
            <Array as="points">
              <mxPoint x="310" y="570" />
            </Array>
            <mxPoint as="offset" />
          </mxGeometry>
        </mxCell>
        <mxCell id="DcM5iLWy5LF_-Y-xgWSp-26" value="修改数据库内容" style="html=1;verticalAlign=bottom;endArrow=block;edgeStyle=elbowEdgeStyle;elbow=vertical;curved=0;rounded=0;" edge="1" target="DcM5iLWy5LF_-Y-xgWSp-25" parent="1" source="DcM5iLWy5LF_-Y-xgWSp-2">
          <mxGeometry relative="1" as="geometry">
            <mxPoint x="435" y="585" as="sourcePoint" />
            <Array as="points">
              <mxPoint x="450" y="600" />
            </Array>
          </mxGeometry>
        </mxCell>
        <mxCell id="DcM5iLWy5LF_-Y-xgWSp-27" value="返回是否修改成功" style="html=1;verticalAlign=bottom;endArrow=open;dashed=1;endSize=8;edgeStyle=elbowEdgeStyle;elbow=vertical;curved=0;rounded=0;" edge="1" source="DcM5iLWy5LF_-Y-xgWSp-25" parent="1" target="DcM5iLWy5LF_-Y-xgWSp-20">
          <mxGeometry relative="1" as="geometry">
            <mxPoint x="435" y="660" as="targetPoint" />
            <Array as="points">
              <mxPoint x="430" y="660" />
            </Array>
          </mxGeometry>
        </mxCell>
      </root>
    </mxGraphModel>
  </diagram>
</mxfile>
